<svg xmlns="http://www.w3.org/2000/svg" version="1.1" xmlns:xlink="http://www.w3.org/1999/xlink" xmlns:svgjs="http://svgjs.dev/svgjs" width="1920" height="1200" preserveAspectRatio="none" viewBox="0 0 1920 1200"><g clip-path="url(&quot;#SvgjsClipPath1004&quot;)" fill="none"><rect width="1920" height="1200" x="0" y="0" fill="#0e2a47"></rect><path d="M4.02 93.15Q11.86 94.79 19.71 96.43 27.55 98.07 35.39 99.7 43.23 101.33 51.08 102.96 58.92 104.57 66.76 106.18 74.6 107.77 82.45 109.37 90.29 110.94 98.13 112.51 105.98 114.05 113.82 115.6 121.66 117.11 129.5 118.63 137.35 120.11 145.19 121.58" stroke="#8000ff" stroke-width="4"></path><path d="M163.99 125.03Q171.65 126.39 179.31 127.74 186.97 129.06 194.63 130.37 202.29 131.64 209.95 132.9 217.61 134.12 225.27 135.33 232.93 136.49 240.59 137.65 248.25 138.75 255.91 139.86 263.57 140.9 271.23 141.94 278.89 142.92 286.55 143.91 294.21 144.82 301.87 145.74 309.53 146.59 317.19 147.44 324.85 148.22 332.51 149 340.17 149.71 347.83 150.41 355.49 151.05 363.15 151.69" stroke="#ff00ff" stroke-width="4"></path><path d="M377.69 152.75Q385.79 153.27 393.88 153.78 401.98 154.21 410.08 154.64 418.17 154.98 426.27 155.32 434.37 155.57 442.46 155.83 450.56 155.99 458.66 156.15 466.75 156.23 474.85 156.3 482.95 156.28 491.04 156.27 499.14 156.16 507.24 156.05 515.33 155.86 523.43 155.66 531.53 155.38 539.62 155.09 547.72 154.72 555.82 154.35 563.91 153.89 572.01 153.43" stroke="#00ffff" stroke-width="4"></path><path d="M607 150.86Q612.28 150.4 617.57 149.93 622.85 149.43 628.13 148.93 633.42 148.4 638.7 147.87" stroke="#4000ff" stroke-width="4"></path><path d="M649.96 146.66Q653.35 146.28 656.73 145.9 660.12 145.51 663.5 145.11 666.88 144.7 670.27 144.3" stroke="#ff00ff" stroke-width="4"></path><path d="M708.47 139.24Q716.15 138.11 723.84 136.99 731.52 135.81 739.21 134.63 746.89 133.4 754.57 132.16 762.26 130.88 769.94 129.6 777.62 128.27 785.31 126.93 792.99 125.56 800.67 124.19 808.36 122.77 816.04 121.36 823.73 119.9 831.41 118.45 839.09 116.97 846.78 115.48 854.46 113.97 862.14 112.45 869.83 110.91 877.51 109.37 885.2 107.81 892.88 106.25" stroke="#ff00ff" stroke-width="4"></path><path d="M924.03 99.82Q931.55 98.26 939.07 96.69 946.59 95.11 954.11 93.54 961.63 91.97 969.15 90.39 976.67 88.82 984.19 87.25 991.71 85.68 999.23 84.11 1006.75 82.56 1014.26 81 1021.78 79.46 1029.3 77.92 1036.82 76.39 1044.34 74.87 1051.86 73.36 1059.38 71.86 1066.9 70.38 1074.42 68.9 1081.94 67.45 1089.46 66" stroke="#4000ff" stroke-width="4"></path><path d="M1115.14 61.19Q1116.42 60.96 1117.69 60.73 1118.97 60.49 1120.25 60.26 1121.52 60.03 1122.8 59.8" stroke="#ff00ff" stroke-width="4"></path><path d="M1152.72 54.57Q1157.34 53.8 1161.96 53.02 1166.58 52.27 1171.19 51.51 1175.81 50.78 1180.43 50.04" stroke="#4000ff" stroke-width="4"></path><path d="M1200.84 46.93Q1210.29 45.58 1219.73 44.23 1229.18 42.97 1238.62 41.71 1248.07 40.55 1257.51 39.39" stroke="#0080ff" stroke-width="4"></path><path d="M1272.08 37.73Q1280.22 36.88 1288.36 36.03 1296.5 35.26 1304.64 34.48 1312.79 33.79 1320.93 33.11 1329.07 32.5 1337.21 31.89 1345.35 31.37 1353.49 30.86 1361.63 30.42 1369.77 29.99 1377.91 29.65 1386.05 29.3 1394.2 29.05 1402.34 28.79 1410.48 28.63 1418.62 28.46 1426.76 28.39 1434.9 28.32" stroke="#00ffff" stroke-width="4"></path><path d="M1468.38 28.58Q1472.28 28.67 1476.18 28.76 1480.09 28.86 1483.99 28.97 1487.89 29.1 1491.79 29.22" stroke="#ff0080" stroke-width="4"></path><path d="M1528.66 30.98Q1536.05 31.46 1543.43 31.94 1550.82 32.49 1558.21 33.04 1565.59 33.65 1572.98 34.27" stroke="#4000ff" stroke-width="4"></path><path d="M1595.51 36.42Q1603.02 37.22 1610.53 38.02 1618.04 38.88 1625.55 39.75 1633.05 40.68 1640.56 41.6 1648.07 42.59 1655.58 43.58" stroke="#ff00ff" stroke-width="4"></path><path d="M1679.58 46.99Q1687.13 48.13 1694.67 49.28 1702.22 50.47 1709.77 51.67 1717.31 52.91 1724.86 54.16 1732.4 55.45 1739.95 56.74 1747.5 58.08 1755.04 59.41 1762.59 60.79 1770.14 62.16 1777.68 63.58 1785.23 64.99 1792.77 66.43 1800.32 67.88 1807.87 69.35 1815.41 70.83 1822.96 72.33 1830.51 73.83 1838.05 75.35 1845.6 76.88 1853.14 78.42 1860.69 79.96" stroke="#0080ff" stroke-width="4"></path><path d="M1880.66 84.09Q1883.85 84.75 1887.03 85.42 1890.22 86.08 1893.41 86.75 1896.59 87.41 1899.78 88.08" stroke="#8000ff" stroke-width="4"></path><path d="M17.97 188.38Q25.51 189.95 33.06 191.52 40.6 193.09 48.14 194.66 55.68 196.21 63.23 197.76 70.77 199.3 78.31 200.84 85.85 202.36 93.4 203.87 100.94 205.37 108.48 206.86 116.03 208.33 123.57 209.8 131.11 211.23 138.65 212.67 146.2 214.07 153.74 215.47 161.28 216.84 168.82 218.2 176.37 219.53 183.91 220.85 191.45 222.13 198.99 223.41 206.54 224.64 214.08 225.87" stroke="#00ffff" stroke-width="4"></path><path d="M241.96 230.16Q245.1 230.62 248.25 231.07 251.39 231.52 254.53 231.97 257.68 232.41 260.82 232.85" stroke="#ff0080" stroke-width="4"></path><path d="M285.74 236.11Q292.47 236.92 299.19 237.74 305.92 238.5 312.65 239.25 319.37 239.96 326.1 240.67" stroke="#0080ff" stroke-width="4"></path><path d="M358.03 243.58Q365.81 244.18 373.6 244.77 381.38 245.29 389.17 245.81 396.95 246.25 404.73 246.68 412.52 247.04 420.3 247.4 428.09 247.67 435.87 247.95 443.65 248.14 451.44 248.34 459.22 248.45 467.01 248.56 474.79 248.59 482.58 248.61 490.36 248.56 498.14 248.5 505.93 248.36 513.71 248.23 521.5 248.01 529.28 247.78" stroke="#00ffff" stroke-width="4"></path><path d="M560.67 246.4Q568.2 245.95 575.74 245.5 583.27 244.98 590.81 244.45 598.34 243.86 605.88 243.26 613.41 242.59 620.95 241.93 628.48 241.19 636.02 240.45 643.55 239.65 651.08 238.84 658.62 237.97 666.15 237.1 673.69 236.17 681.22 235.23 688.76 234.24 696.29 233.24 703.83 232.19 711.36 231.13 718.9 230.02 726.43 228.91" stroke="#8000ff" stroke-width="4"></path><path d="M756.29 224.19Q764.06 222.89 771.84 221.58 779.61 220.23 787.38 218.88 795.16 217.48 802.93 216.08 810.7 214.64 818.48 213.21 826.25 211.73 834.03 210.26 841.8 208.75 849.57 207.24 857.35 205.71 865.12 204.17" stroke="#4000ff" stroke-width="4"></path><path d="M879.29 201.32Q887.98 199.55 896.67 197.78 905.36 195.99 914.05 194.2 922.74 192.4 931.43 190.59 940.12 188.77 948.81 186.96 957.5 185.14 966.19 183.32 974.88 181.5 983.57 179.68" stroke="#4000ff" stroke-width="4"></path><path d="M998.64 176.54Q1006.72 174.87 1014.8 173.2 1022.88 171.54 1030.95 169.89 1039.03 168.25 1047.11 166.62 1055.19 165.01 1063.27 163.4 1071.35 161.82 1079.43 160.23 1087.5 158.69 1095.58 157.14 1103.66 155.63 1111.74 154.12 1119.82 152.66 1127.9 151.19 1135.98 149.77 1144.06 148.36 1152.13 146.99 1160.21 145.62 1168.29 144.31 1176.37 142.99" stroke="#4000ff" stroke-width="4"></path><path d="M1211.01 137.76Q1219.41 136.6 1227.81 135.43 1236.21 134.35 1244.61 133.26 1253.01 132.25 1261.41 131.24 1269.81 130.31 1278.21 129.38 1286.61 128.53 1295.01 127.69 1303.41 126.93 1311.81 126.16 1320.21 125.49 1328.61 124.82" stroke="#ff0080" stroke-width="4"></path><path d="M1347.7 123.51Q1355.4 123.07 1363.1 122.63 1370.81 122.27 1378.51 121.91 1386.21 121.62 1393.91 121.34 1401.62 121.14 1409.32 120.94 1417.02 120.82 1424.72 120.7 1432.42 120.66 1440.13 120.62 1447.83 120.66 1455.53 120.7 1463.23 120.82 1470.94 120.94 1478.64 121.15 1486.34 121.35" stroke="#ff00ff" stroke-width="4"></path><path d="M1525.35 123.1Q1534 123.64 1542.64 124.19 1551.29 124.84 1559.94 125.48 1568.59 126.22 1577.23 126.96 1585.88 127.79 1594.53 128.63" stroke="#0080ff" stroke-width="4"></path><path d="M1608.62 130.11Q1616.71 131.04 1624.81 131.97 1632.9 132.97 1640.99 133.97 1649.08 135.04 1657.18 136.11 1665.27 137.25 1673.36 138.39 1681.45 139.59 1689.55 140.8 1697.64 142.06 1705.73 143.33 1713.83 144.65 1721.92 145.97 1730.01 147.35 1738.1 148.73 1746.2 150.16 1754.29 151.59" stroke="#0080ff" stroke-width="4"></path><path d="M1790.11 158.22Q1791.54 158.5 1792.97 158.77 1794.4 159.05 1795.84 159.32 1797.27 159.6 1798.7 159.87" stroke="#ff0080" stroke-width="4"></path><path d="M1835.73 167.19Q1839.94 168.04 1844.16 168.89 1848.37 169.75 1852.58 170.61 1856.8 171.47 1861.01 172.34 1865.22 173.21 1869.44 174.07 1873.65 174.95 1877.86 175.82 1882.08 176.69 1886.29 177.57 1890.51 178.45 1894.72 179.33 1898.93 180.21 1903.15 181.09 1907.36 181.97 1911.57 182.85 1915.79 183.73 1920 184.62" stroke="#00ffff" stroke-width="4"></path><path d="M7.79 278.55Q15.48 280.16 23.17 281.77 30.86 283.37 38.55 284.97 46.24 286.57 53.93 288.16 61.61 289.74 69.3 291.31 76.99 292.87 84.68 294.43 92.37 295.97 100.06 297.51 107.75 299.02 115.44 300.53 123.13 302.01 130.82 303.49 138.51 304.94 146.2 306.39 153.89 307.8 161.57 309.21 169.26 310.58 176.95 311.95 184.64 313.27 192.33 314.6 200.02 315.87 207.71 317.15" stroke="#8000ff" stroke-width="4"></path><path d="M228.61 320.46Q236.61 321.66 244.61 322.86 252.62 323.99 260.62 325.13 268.62 326.19 276.62 327.26 284.62 328.26 292.62 329.26 300.63 330.19 308.63 331.12 316.63 331.97 324.63 332.83 332.63 333.6 340.63 334.38 348.63 335.08 356.64 335.78 364.64 336.4 372.64 337.01 380.64 337.55 388.64 338.08 396.64 338.54 404.65 338.99 412.65 339.35 420.65 339.72" stroke="#ff00ff" stroke-width="4"></path><path d="M443.16 340.46Q451.12 340.62 459.07 340.77 467.02 340.84 474.98 340.91 482.93 340.9 490.89 340.88 498.85 340.78 506.8 340.68 514.75 340.49 522.71 340.3 530.66 340.02 538.62 339.75" stroke="#0080ff" stroke-width="4"></path><path d="M550.46 339.23Q558.21 338.82 565.95 338.41 573.7 337.92 581.44 337.43 589.19 336.86 596.93 336.29 604.68 335.65 612.42 335.01 620.17 334.29 627.92 333.57 635.66 332.78 643.41 331.99 651.15 331.13 658.9 330.27 666.64 329.33 674.39 328.4 682.13 327.41 689.88 326.41" stroke="#ff0080" stroke-width="4"></path><path d="M717.53 322.54Q725.04 321.41 732.56 320.28 740.07 319.1 747.58 317.91 755.1 316.68 762.61 315.45" stroke="#8000ff" stroke-width="4"></path><path d="M802.54 308.46Q810.33 307.02 818.13 305.58 825.92 304.1 833.71 302.63 841.51 301.11 849.3 299.6 857.1 298.06 864.89 296.52 872.68 294.96 880.48 293.39 888.27 291.8 896.06 290.22 903.86 288.61 911.65 287.01 919.45 285.39 927.24 283.77 935.03 282.14 942.83 280.52 950.62 278.89 958.41 277.26 966.21 275.62 974 273.99 981.8 272.36 989.59 270.74" stroke="#ff00ff" stroke-width="4"></path><path d="M1004.71 267.59Q1013.06 265.87 1021.42 264.15 1029.77 262.44 1038.13 260.74 1046.48 259.06 1054.84 257.38 1063.19 255.73 1071.55 254.08" stroke="#ff00ff" stroke-width="4"></path><path d="M1095.03 249.55Q1102.8 248.1 1110.56 246.65 1118.33 245.24 1126.1 243.82 1133.87 242.45 1141.63 241.08 1149.4 239.76 1157.17 238.43 1164.93 237.16 1172.7 235.89 1180.47 234.66 1188.24 233.44 1196 232.28 1203.77 231.11 1211.54 230.01 1219.3 228.9 1227.07 227.86 1234.84 226.81 1242.6 225.83 1250.37 224.86 1258.14 223.94 1265.91 223.03 1273.67 222.19 1281.44 221.35" stroke="#0080ff" stroke-width="4"></path><path d="M1310.93 218.55Q1318.46 217.94 1325.99 217.33 1333.52 216.79 1341.05 216.25 1348.58 215.78 1356.11 215.32 1363.64 214.93 1371.17 214.54 1378.7 214.23 1386.23 213.91 1393.76 213.67 1401.29 213.44 1408.83 213.28 1416.36 213.11 1423.89 213.03 1431.42 212.95 1438.95 212.94 1446.48 212.94 1454.01 213.01 1461.54 213.08 1469.07 213.23 1476.6 213.38 1484.13 213.61 1491.66 213.84 1499.19 214.14 1506.72 214.44" stroke="#00ffff" stroke-width="4"></path><path d="M1524.24 215.34Q1531.77 215.81 1539.29 216.27 1546.82 216.81 1554.35 217.35 1561.88 217.96 1569.4 218.58 1576.93 219.26 1584.46 219.94 1591.98 220.69 1599.51 221.45 1607.04 222.27 1614.57 223.09 1622.09 223.97 1629.62 224.85 1637.15 225.8 1644.67 226.75 1652.2 227.76 1659.73 228.77 1667.25 229.83 1674.78 230.9 1682.31 232.03 1689.84 233.15 1697.36 234.32 1704.89 235.5" stroke="#ff00ff" stroke-width="4"></path><path d="M1725.97 238.96Q1734.17 240.37 1742.37 241.78 1750.57 243.24 1758.77 244.7 1766.97 246.21 1775.16 247.71 1783.36 249.26 1791.56 250.81 1799.76 252.39 1807.96 253.98" stroke="#0080ff" stroke-width="4"></path><path d="M1822.97 256.94Q1828.36 258.02 1833.75 259.1 1839.14 260.19 1844.53 261.28 1849.92 262.38 1855.31 263.48 1860.7 264.58 1866.09 265.69 1871.49 266.81 1876.88 267.92 1882.27 269.04 1887.66 270.16 1893.05 271.29 1898.44 272.41 1903.83 273.54 1909.22 274.67 1914.61 275.79 1920 276.92" stroke="#ff0080" stroke-width="4"></path><path d="M37.92 377.15Q46.51 378.93 55.1 380.71 63.69 382.47 72.28 384.23 80.87 385.96 89.46 387.7 98.04 389.41 106.63 391.11 115.22 392.79 123.81 394.46 132.4 396.09 140.99 397.72" stroke="#ff00ff" stroke-width="4"></path><path d="M166.88 402.47Q175.41 403.97 183.94 405.47 192.48 406.92 201.01 408.36 209.54 409.74 218.07 411.12 226.61 412.44 235.14 413.76 243.67 415.01 252.2 416.26 260.74 417.43 269.27 418.61" stroke="#4000ff" stroke-width="4"></path><path d="M286.31 420.8Q294.32 421.76 302.32 422.71 310.33 423.6 318.33 424.48 326.34 425.29 334.35 426.1 342.35 426.83 350.36 427.56 358.36 428.21 366.37 428.86 374.37 429.42 382.38 429.99 390.39 430.48 398.39 430.96 406.4 431.36 414.4 431.76 422.41 432.08 430.41 432.39 438.42 432.62 446.43 432.84 454.43 432.98 462.44 433.13 470.44 433.18 478.45 433.23" stroke="#00ffff" stroke-width="4"></path><path d="M517.47 432.75Q525.97 432.48 534.47 432.22 542.98 431.85 551.48 431.49 559.98 431.03 568.48 430.57 576.98 430.01 585.49 429.46 593.99 428.81 602.49 428.16" stroke="#8000ff" stroke-width="4"></path><path d="M632.97 425.38Q640.92 424.54 648.88 423.7 656.83 422.79 664.79 421.88 672.74 420.9 680.7 419.92 688.65 418.87 696.6 417.81 704.56 416.7 712.51 415.58 720.47 414.4 728.42 413.22 736.37 411.98 744.33 410.74 752.28 409.45 760.24 408.15 768.19 406.8 776.14 405.46 784.1 404.06 792.05 402.66 800.01 401.22 807.96 399.78 815.92 398.29 823.87 396.81" stroke="#8000ff" stroke-width="4"></path><path d="M838.7 393.97Q846.73 392.41 854.76 390.84 862.79 389.24 870.83 387.64 878.86 386.02 886.89 384.4 894.92 382.75 902.95 381.11 910.98 379.45 919.01 377.79 927.05 376.12 935.08 374.44 943.11 372.77 951.14 371.09 959.17 369.4 967.2 367.72 975.23 366.04 983.26 364.36 991.3 362.69 999.33 361.02 1007.36 359.36 1015.39 357.69" stroke="#ff00ff" stroke-width="4"></path><path d="M1052.5 350.15Q1060.51 348.57 1068.51 346.98 1076.52 345.42 1084.52 343.87 1092.53 342.35 1100.53 340.82 1108.54 339.34 1116.55 337.86 1124.55 336.42 1132.56 334.98 1140.56 333.59 1148.57 332.2" stroke="#ff00ff" stroke-width="4"></path><path d="M1170.19 328.6Q1178.53 327.28 1186.87 325.96 1195.21 324.71 1203.55 323.45 1211.89 322.27 1220.23 321.08 1228.57 319.97 1236.91 318.85 1245.25 317.81 1253.59 316.77 1261.93 315.81 1270.27 314.85 1278.61 313.97 1286.95 313.09 1295.29 312.3 1303.63 311.5" stroke="#4000ff" stroke-width="4"></path><path d="M1329.76 309.35Q1333.88 309.06 1338.01 308.76 1342.13 308.49 1346.26 308.22 1350.38 307.97 1354.51 307.72" stroke="#0080ff" stroke-width="4"></path><path d="M1381.59 306.4Q1389.11 306.14 1396.64 305.87 1404.16 305.69 1411.68 305.51 1419.21 305.4 1426.73 305.29 1434.25 305.26 1441.78 305.23 1449.3 305.28 1456.82 305.33 1464.35 305.45 1471.87 305.58 1479.39 305.78 1486.92 305.98 1494.44 306.26 1501.96 306.54 1509.49 306.9 1517.01 307.25" stroke="#4000ff" stroke-width="4"></path><path d="M1528.91 307.92Q1536.55 308.42 1544.19 308.92 1551.84 309.49 1559.48 310.06 1567.12 310.71 1574.76 311.35 1582.4 312.07 1590.05 312.79 1597.69 313.58 1605.33 314.37 1612.97 315.23 1620.61 316.09 1628.26 317.01 1635.9 317.94 1643.54 318.93 1651.18 319.92 1658.82 320.97 1666.46 322.02 1674.11 323.13 1681.75 324.24 1689.39 325.4 1697.03 326.57 1704.67 327.79 1712.32 329.01 1719.96 330.28 1727.6 331.54" stroke="#8000ff" stroke-width="4"></path><path d="M1748.54 335.18Q1757.63 336.82 1766.72 338.46 1775.81 340.15 1784.9 341.85 1793.98 343.59 1803.07 345.33 1812.16 347.12 1821.25 348.91" stroke="#4000ff" stroke-width="4"></path><path d="M1848.57 354.41Q1852.14 355.14 1855.71 355.87 1859.28 356.6 1862.86 357.33 1866.43 358.07 1870 358.81 1873.57 359.54 1877.14 360.28 1880.71 361.03 1884.29 361.77 1887.86 362.51 1891.43 363.26 1895 364 1898.57 364.75 1902.14 365.49 1905.71 366.24 1909.29 366.99 1912.86 367.73 1916.43 368.48 1920 369.23" stroke="#4000ff" stroke-width="4"></path><path d="M5.74 462.74Q13.69 464.4 21.63 466.07 29.58 467.72 37.52 469.38 45.47 471.02 53.41 472.67 61.36 474.3 69.31 475.93 77.25 477.54 85.2 479.15 93.14 480.74 101.09 482.33 109.03 483.89 116.98 485.44" stroke="#00ffff" stroke-width="4"></path><path d="M147.5 491.25Q155.52 492.71 163.54 494.18 171.56 495.6 179.58 497.02 187.6 498.4 195.63 499.77 203.65 501.09 211.67 502.41 219.69 503.67 227.71 504.94 235.73 506.14 243.75 507.35 251.77 508.49 259.79 509.63 267.81 510.7 275.84 511.78 283.86 512.78 291.88 513.79 299.9 514.72 307.92 515.66" stroke="#ff00ff" stroke-width="4"></path><path d="M325.17 517.5Q326.02 517.58 326.87 517.67 327.71 517.75 328.56 517.84 329.41 517.92 330.26 518.01" stroke="#ff0080" stroke-width="4"></path><path d="M346.23 519.5Q354.52 520.2 362.81 520.89 371.1 521.49 379.39 522.1 387.68 522.62 395.96 523.13 404.25 523.56 412.54 523.99 420.83 524.32 429.12 524.65 437.41 524.89 445.7 525.14" stroke="#00ffff" stroke-width="4"></path><path d="M484.22 525.53Q490.93 525.48 497.64 525.43 504.35 525.32 511.07 525.21 517.78 525.03 524.49 524.86" stroke="#ff00ff" stroke-width="4"></path><path d="M553.9 523.68Q562.23 523.21 570.56 522.75 578.89 522.19 587.22 521.64 595.55 520.99 603.88 520.35 612.21 519.62 620.55 518.89 628.88 518.07 637.21 517.25 645.54 516.35 653.87 515.46 662.2 514.48 670.53 513.5" stroke="#ff0080" stroke-width="4"></path><path d="M681.46 512.13Q689.66 511.04 697.86 509.95 706.06 508.79 714.26 507.64 722.46 506.41 730.66 505.19 738.86 503.9 747.06 502.61 755.26 501.27 763.46 499.92 771.66 498.52 779.86 497.12 788.06 495.67 796.26 494.21 804.46 492.71 812.66 491.22 820.86 489.67 829.06 488.13" stroke="#ff00ff" stroke-width="4"></path><path d="M865.79 480.96Q873.81 479.35 881.82 477.73 889.84 476.1 897.86 474.46 905.87 472.81 913.89 471.16" stroke="#00ffff" stroke-width="4"></path><path d="M928.02 468.22Q932.69 467.25 937.35 466.28 942.02 465.3 946.69 464.33 951.35 463.35 956.02 462.37" stroke="#0080ff" stroke-width="4"></path><path d="M975.83 458.22Q984.85 456.34 993.87 454.46 1002.89 452.59 1011.91 450.72 1020.94 448.87 1029.96 447.01 1038.98 445.19 1048 443.36" stroke="#ff00ff" stroke-width="4"></path><path d="M1070.35 438.93Q1077.9 437.46 1085.45 436 1093 434.56 1100.55 433.13 1108.1 431.73 1115.65 430.33 1123.2 428.97 1130.75 427.61 1138.3 426.29 1145.85 424.97 1153.4 423.69 1160.95 422.42 1168.5 421.19 1176.05 419.97 1183.6 418.79 1191.15 417.61 1198.7 416.49 1206.25 415.37 1213.8 414.3 1221.35 413.23 1228.9 412.23 1236.45 411.22" stroke="#00ffff" stroke-width="4"></path><path d="M1274.33 406.72Q1276.31 406.5 1278.28 406.29 1280.26 406.09 1282.24 405.88 1284.21 405.68 1286.19 405.48" stroke="#ff0080" stroke-width="4"></path><path d="M1302.04 403.95Q1311.04 403.18 1320.03 402.41 1329.03 401.74 1338.03 401.07 1347.03 400.5 1356.02 399.94 1365.02 399.48 1374.02 399.02" stroke="#ff0080" stroke-width="4"></path><path d="M1410.81 397.83Q1418.48 397.72 1426.15 397.6 1433.82 397.57 1441.49 397.54 1449.17 397.59 1456.84 397.64 1464.51 397.76 1472.18 397.89 1479.85 398.1 1487.52 398.31 1495.19 398.6 1502.86 398.89 1510.54 399.26 1518.21 399.62 1525.88 400.07 1533.55 400.51" stroke="#4000ff" stroke-width="4"></path><path d="M1551.35 401.74Q1553.62 401.91 1555.89 402.09 1558.16 402.27 1560.43 402.44 1562.7 402.63 1564.97 402.82" stroke="#0080ff" stroke-width="4"></path><path d="M1579.74 404.11Q1587.82 404.9 1595.89 405.69 1603.97 406.55 1612.05 407.42 1620.13 408.36 1628.2 409.3 1636.28 410.31 1644.36 411.32 1652.44 412.41 1660.51 413.49 1668.59 414.64 1676.67 415.79 1684.75 417.01 1692.82 418.22 1700.9 419.5 1708.98 420.77 1717.06 422.1 1725.13 423.44 1733.21 424.82 1741.29 426.21" stroke="#0080ff" stroke-width="4"></path><path d="M1774.4 432.18Q1783.59 433.92 1792.77 435.66 1801.96 437.44 1811.14 439.22 1820.33 441.04 1829.52 442.86 1838.7 444.72 1847.89 446.58" stroke="#8000ff" stroke-width="4"></path><path d="M1886.25 454.48Q1887.94 454.84 1889.62 455.19 1891.31 455.54 1893 455.89 1894.69 456.24 1896.37 456.6 1898.06 456.95 1899.75 457.3 1901.44 457.65 1903.12 458.01 1904.81 458.36 1906.5 458.71 1908.19 459.07 1909.87 459.42 1911.56 459.77 1913.25 460.12 1914.94 460.48 1916.63 460.83 1918.31 461.19 1920 461.54" stroke="#8000ff" stroke-width="4"></path><path d="M48.12 563.88Q56.37 565.58 64.63 567.28 72.88 568.96 81.14 570.64 89.39 572.3 97.65 573.95 105.9 575.58 114.15 577.2 122.41 578.79 130.66 580.39 138.92 581.94 147.17 583.49 155.43 585 163.68 586.51" stroke="#ff00ff" stroke-width="4"></path><path d="M194.59 591.9Q201.96 593.12 209.32 594.34 216.69 595.51 224.06 596.68 231.42 597.8 238.79 598.92" stroke="#4000ff" stroke-width="4"></path><path d="M263.29 602.42Q264.31 602.55 265.32 602.69 266.34 602.83 267.35 602.96 268.37 603.1 269.38 603.24" stroke="#ff00ff" stroke-width="4"></path><path d="M308.05 607.98Q316.27 608.86 324.49 609.74 332.72 610.53 340.94 611.33 349.16 612.05 357.38 612.76 365.6 613.39 373.83 614.02 382.05 614.56 390.27 615.11 398.49 615.56 406.71 616.01 414.93 616.38 423.16 616.74 431.38 617.01 439.6 617.29" stroke="#4000ff" stroke-width="4"></path><path d="M473.61 617.83Q481.12 617.83 488.63 617.82 496.14 617.74 503.64 617.65 511.15 617.49 518.66 617.33 526.17 617.1 533.68 616.86 541.19 616.55 548.69 616.24 556.2 615.85 563.71 615.46 571.22 615 578.73 614.53 586.24 614 593.75 613.46 601.25 612.86 608.76 612.25 616.27 611.57 623.78 610.89" stroke="#ff0080" stroke-width="4"></path><path d="M652.12 607.96Q661.07 606.91 670.02 605.87 678.97 604.73 687.92 603.59 696.88 602.37 705.83 601.15 714.78 599.85 723.73 598.55" stroke="#ff00ff" stroke-width="4"></path><path d="M735.08 596.81Q742.77 595.59 750.46 594.37 758.14 593.1 765.83 591.83 773.52 590.51 781.21 589.19 788.89 587.83 796.58 586.46 804.27 585.06 811.96 583.65 819.64 582.21 827.33 580.77" stroke="#00ffff" stroke-width="4"></path><path d="M863.36 573.75Q871.02 572.21 878.68 570.68 886.34 569.12 894 567.56 901.66 565.99 909.32 564.41 916.97 562.82 924.63 561.24 932.29 559.64 939.95 558.04 947.61 556.44 955.27 554.84" stroke="#ff0080" stroke-width="4"></path><path d="M972.68 551.19Q980.28 549.6 987.88 548.01 995.49 546.43 1003.09 544.85 1010.69 543.28 1018.29 541.71 1025.89 540.16 1033.49 538.6 1041.1 537.07 1048.7 535.53 1056.3 534.02 1063.9 532.5 1071.5 531.01 1079.11 529.53 1086.71 528.07 1094.31 526.61" stroke="#4000ff" stroke-width="4"></path><path d="M1113.38 523.05Q1115.21 522.72 1117.03 522.39 1118.86 522.05 1120.69 521.72 1122.51 521.39 1124.34 521.06" stroke="#8000ff" stroke-width="4"></path><path d="M1147.82 516.94Q1155.47 515.65 1163.12 514.37 1170.77 513.13 1178.42 511.9 1186.07 510.71 1193.72 509.53 1201.37 508.4 1209.02 507.28 1216.67 506.21 1224.32 505.14 1231.97 504.13 1239.62 503.12 1247.27 502.18 1254.92 501.23 1262.57 500.35 1270.22 499.47 1277.87 498.66 1285.52 497.85 1293.17 497.11 1300.82 496.37 1308.47 495.7 1316.12 495.03 1323.77 494.44 1331.42 493.84 1339.07 493.32 1346.72 492.8" stroke="#0080ff" stroke-width="4"></path><path d="M1356.73 492.21Q1364.89 491.79 1373.06 491.38 1381.22 491.05 1389.38 490.72 1397.55 490.49 1405.71 490.25 1413.88 490.1 1422.04 489.96" stroke="#ff0080" stroke-width="4"></path><path d="M1450.07 489.88Q1458.18 489.98 1466.3 490.08 1474.41 490.27 1482.53 490.46 1490.64 490.75 1498.76 491.03 1506.87 491.39 1514.98 491.76 1523.1 492.22 1531.21 492.68 1539.33 493.22 1547.44 493.76 1555.56 494.39 1563.67 495.02 1571.79 495.73 1579.9 496.44" stroke="#8000ff" stroke-width="4"></path><path d="M1615.52 500.12Q1624.25 501.15 1632.97 502.19 1641.7 503.31 1650.42 504.43 1659.15 505.63 1667.87 506.83 1676.6 508.11 1685.33 509.39 1694.05 510.74 1702.78 512.09 1711.5 513.51 1720.23 514.92" stroke="#8000ff" stroke-width="4"></path><path d="M1750.71 520.18Q1760.41 521.94 1770.11 523.7 1779.8 525.52 1789.5 527.34 1799.2 529.21 1808.9 531.09" stroke="#0080ff" stroke-width="4"></path><path d="M1820.89 533.45Q1826.4 534.55 1831.9 535.65 1837.41 536.76 1842.91 537.87 1848.42 538.99 1853.93 540.12 1859.43 541.25 1864.94 542.38 1870.44 543.51 1875.95 544.65 1881.46 545.8 1886.96 546.94 1892.47 548.09 1897.98 549.24 1903.48 550.39 1908.99 551.54 1914.49 552.69 1920 553.85" stroke="#0080ff" stroke-width="4"></path><path d="M25.86 651.56Q31.91 652.82 37.97 654.09 44.02 655.34 50.07 656.59 56.13 657.84 62.18 659.09" stroke="#8000ff" stroke-width="4"></path><path d="M88.26 664.38Q96.42 666.01 104.57 667.63 112.73 669.22 120.89 670.82 129.04 672.38 137.2 673.93" stroke="#8000ff" stroke-width="4"></path><path d="M148.64 676.07Q156.72 677.55 164.8 679.02 172.88 680.45 180.97 681.88 189.05 683.26 197.13 684.64 205.21 685.96 213.29 687.29 221.37 688.55 229.45 689.82 237.54 691.03 245.62 692.23 253.7 693.37 261.78 694.52 269.86 695.59 277.94 696.67 286.03 697.67 294.11 698.67 302.19 699.6 310.27 700.53" stroke="#ff00ff" stroke-width="4"></path><path d="M328.89 702.49Q336.69 703.23 344.5 703.96 352.3 704.63 360.1 705.29 367.9 705.88 375.71 706.46 383.51 706.97 391.31 707.48 399.12 707.9 406.92 708.33 414.72 708.68 422.52 709.03 430.33 709.29 438.13 709.55 445.93 709.74 453.73 709.92 461.54 710.02 469.34 710.11" stroke="#8000ff" stroke-width="4"></path><path d="M481.19 710.15Q485.34 710.14 489.49 710.12 493.64 710.08 497.8 710.05 501.95 709.98 506.1 709.92" stroke="#ff00ff" stroke-width="4"></path><path d="M528.89 709.34Q537.05 709.02 545.2 708.7 553.36 708.3 561.51 707.89 569.67 707.4 577.83 706.9 585.98 706.32 594.14 705.74 602.29 705.08 610.45 704.41 618.61 703.66 626.76 702.91 634.92 702.08 643.07 701.25 651.23 700.35 659.38 699.44 667.54 698.46 675.7 697.47 683.85 696.42 692.01 695.36 700.16 694.23 708.32 693.1" stroke="#00ffff" stroke-width="4"></path><path d="M738.47 688.59Q746.34 687.33 754.21 686.07 762.07 684.76 769.94 683.44 777.81 682.08 785.68 680.72 793.55 679.31 801.41 677.9 809.28 676.45 817.15 674.99 825.02 673.5 832.89 672.02 840.75 670.49 848.62 668.97 856.49 667.41 864.36 665.86 872.23 664.28 880.09 662.7 887.96 661.1 895.83 659.5" stroke="#00ffff" stroke-width="4"></path><path d="M905.88 657.43Q913.88 655.77 921.88 654.12 929.88 652.45 937.89 650.78 945.89 649.11 953.89 647.43 961.89 645.76 969.89 644.08 977.89 642.41 985.89 640.74 993.9 639.07 1001.9 637.41 1009.9 635.75 1017.9 634.1 1025.9 632.46 1033.9 630.83 1041.91 629.21 1049.91 627.59 1057.91 626 1065.91 624.41" stroke="#ff0080" stroke-width="4"></path><path d="M1086.38 620.43Q1094.11 618.97 1101.83 617.5 1109.56 616.08 1117.29 614.65 1125.01 613.26 1132.74 611.87 1140.47 610.53 1148.2 609.18 1155.92 607.89 1163.65 606.59" stroke="#00ffff" stroke-width="4"></path><path d="M1186.29 602.97Q1194.56 601.73 1202.83 600.48 1211.1 599.3 1219.37 598.12 1227.64 597.01 1235.91 595.91 1244.18 594.87 1252.44 593.84 1260.71 592.88 1268.98 591.92 1277.25 591.04 1285.52 590.16 1293.79 589.36 1302.06 588.56 1310.33 587.85 1318.6 587.14" stroke="#00ffff" stroke-width="4"></path><path d="M1336.72 585.77Q1344.24 585.29 1351.76 584.8 1359.28 584.39 1366.81 583.98 1374.33 583.65 1381.85 583.31" stroke="#ff0080" stroke-width="4"></path><path d="M1414.14 582.38Q1422.34 582.28 1430.55 582.18 1438.75 582.18 1446.96 582.17 1455.16 582.26 1463.37 582.34 1471.57 582.52 1479.78 582.7 1487.98 582.96 1496.19 583.23 1504.39 583.59 1512.6 583.95" stroke="#4000ff" stroke-width="4"></path><path d="M1550.39 586.28Q1558.14 586.9 1565.9 587.51 1573.65 588.2 1581.41 588.89 1589.16 589.65 1596.92 590.41 1604.67 591.24 1612.43 592.07 1620.18 592.98 1627.93 593.88 1635.69 594.85 1643.44 595.82 1651.2 596.86 1658.95 597.89 1666.71 598.99 1674.46 600.09 1682.22 601.24 1689.97 602.4" stroke="#00ffff" stroke-width="4"></path><path d="M1705.25 604.79Q1712.88 606.03 1720.52 607.28 1728.15 608.57 1735.78 609.87 1743.42 611.21 1751.05 612.54 1758.68 613.93 1766.32 615.31 1773.95 616.73 1781.58 618.15 1789.22 619.6 1796.85 621.05" stroke="#ff0080" stroke-width="4"></path><path d="M1833.86 628.35Q1840.6 629.71 1847.34 631.08 1854.07 632.46 1860.81 633.84 1867.55 635.23 1874.29 636.62" stroke="#8000ff" stroke-width="4"></path><path d="M1894.1 640.74Q1896.26 641.19 1898.42 641.64 1900.57 642.09 1902.73 642.54 1904.89 642.99 1907.05 643.44 1909.21 643.89 1911.37 644.35 1913.53 644.8 1915.68 645.25 1917.84 645.7 1920 646.15" stroke="#ff00ff" stroke-width="4"></path><path d="M42.62 747.36Q51.09 749.11 59.56 750.86 68.03 752.59 76.51 754.32 84.98 756.02 93.45 757.73 101.92 759.41 110.39 761.08 118.86 762.72 127.33 764.37 135.81 765.97 144.28 767.57 152.75 769.13 161.22 770.68" stroke="#8000ff" stroke-width="4"></path><path d="M193.29 776.3Q198.02 777.09 202.76 777.88 207.49 778.65 212.22 779.42 216.96 780.17 221.69 780.93" stroke="#0080ff" stroke-width="4"></path><path d="M244.96 784.44Q253.29 785.62 261.63 786.8 269.96 787.91 278.29 789.02 286.63 790.05 294.96 791.08 303.29 792.04 311.63 792.99 319.96 793.86 328.3 794.74 336.63 795.52 344.96 796.31 353.3 797.02 361.63 797.72" stroke="#8000ff" stroke-width="4"></path><path d="M382.95 799.26Q391.02 799.75 399.09 800.23 407.16 800.63 415.23 801.03 423.3 801.34 431.37 801.65" stroke="#4000ff" stroke-width="4"></path><path d="M465.27 802.39Q472.8 802.42 480.34 802.46 487.88 802.42 495.41 802.38 502.94 802.26 510.48 802.14 518.01 801.95 525.55 801.75 533.09 801.48 540.62 801.21 548.15 800.86 555.69 800.51 563.22 800.08 570.76 799.66 578.29 799.16 585.83 798.66 593.37 798.09 600.9 797.52 608.43 796.87 615.97 796.23 623.5 795.52 631.04 794.8 638.57 794.02 646.11 793.24 653.64 792.39 661.18 791.54" stroke="#0080ff" stroke-width="4"></path><path d="M688.09 788.19Q696.21 787.08 704.33 785.98 712.46 784.8 720.58 783.63 728.7 782.39 736.82 781.16 744.95 779.86 753.07 778.56 761.19 777.21 769.31 775.86 777.44 774.45 785.56 773.04 793.68 771.59 801.8 770.13 809.93 768.63 818.05 767.13 826.17 765.59 834.29 764.05 842.42 762.48 850.54 760.9 858.66 759.29 866.78 757.68 874.91 756.05 883.03 754.41" stroke="#ff0080" stroke-width="4"></path><path d="M916.25 747.59Q923.64 746.06 931.03 744.52 938.41 742.98 945.8 741.43 953.19 739.89 960.58 738.34" stroke="#00ffff" stroke-width="4"></path><path d="M975.59 735.2Q981.09 734.05 986.59 732.9 992.1 731.75 997.6 730.61 1003.1 729.47 1008.6 728.33" stroke="#00ffff" stroke-width="4"></path><path d="M1018.77 726.23Q1027.74 724.4 1036.7 722.57 1045.67 720.76 1054.63 718.96 1063.6 717.19 1072.57 715.42 1081.53 713.68 1090.5 711.95" stroke="#0080ff" stroke-width="4"></path><path d="M1113.26 707.69Q1120.9 706.31 1128.53 704.93 1136.17 703.59 1143.81 702.25 1151.44 700.95 1159.08 699.65 1166.71 698.41 1174.35 697.16 1181.99 695.96 1189.62 694.77 1197.26 693.63 1204.9 692.49 1212.53 691.4 1220.17 690.32 1227.81 689.3 1235.44 688.27 1243.08 687.31 1250.71 686.35 1258.35 685.46 1265.99 684.56 1273.62 683.73 1281.26 682.9" stroke="#ff0080" stroke-width="4"></path><path d="M1299.58 681.1Q1307.71 680.39 1315.84 679.67 1323.98 679.04 1332.11 678.41 1340.24 677.86 1348.37 677.32 1356.5 676.86 1364.64 676.4 1372.77 676.03 1380.9 675.65 1389.03 675.37 1397.17 675.09 1405.3 674.9 1413.43 674.7" stroke="#4000ff" stroke-width="4"></path><path d="M1432.67 674.48Q1440.66 674.48 1448.66 674.49 1456.65 674.58 1464.65 674.67 1472.64 674.85 1480.63 675.03 1488.63 675.29 1496.62 675.56 1504.62 675.91 1512.61 676.26 1520.6 676.7 1528.6 677.13 1536.59 677.65 1544.59 678.17 1552.58 678.78 1560.57 679.38 1568.57 680.06 1576.56 680.75 1584.56 681.51 1592.55 682.27" stroke="#ff0080" stroke-width="4"></path><path d="M1617.13 684.92Q1625.3 685.89 1633.47 686.87 1641.64 687.92 1649.82 688.96 1657.99 690.08 1666.16 691.2 1674.33 692.39 1682.5 693.58 1690.67 694.83 1698.84 696.08 1707.02 697.39 1715.19 698.71 1723.36 700.08 1731.53 701.44 1739.7 702.87 1747.87 704.29 1756.05 705.76 1764.22 707.23 1772.39 708.74 1780.56 710.26" stroke="#ff00ff" stroke-width="4"></path><path d="M1795.41 713.08Q1803.14 714.59 1810.86 716.09 1818.59 717.62 1826.32 719.15 1834.04 720.7 1841.77 722.26 1849.5 723.83 1857.22 725.41 1864.95 727 1872.68 728.59 1880.4 730.19 1888.13 731.8" stroke="#00ffff" stroke-width="4"></path><path d="M46.18 840.4Q54.03 842.02 61.87 843.64 69.72 845.24 77.57 846.84 85.41 848.42 93.26 850 101.11 851.55 108.95 853.11 116.8 854.63 124.65 856.16 132.5 857.65 140.34 859.14 148.19 860.59 156.04 862.05 163.88 863.46 171.73 864.87 179.58 866.24 187.42 867.61 195.27 868.93 203.12 870.25 210.96 871.51 218.81 872.78" stroke="#00ffff" stroke-width="4"></path><path d="M241.07 876.18Q247.5 877.11 253.94 878.04 260.38 878.93 266.81 879.82 273.25 880.66 279.68 881.5" stroke="#4000ff" stroke-width="4"></path><path d="M317.26 885.91Q326.8 886.87 336.35 887.83 345.89 888.68 355.44 889.53 364.99 890.26 374.53 890.99" stroke="#4000ff" stroke-width="4"></path><path d="M401.4 892.66Q404.86 892.84 408.32 893.02 411.78 893.18 415.25 893.34 418.71 893.48 422.17 893.63" stroke="#ff00ff" stroke-width="4"></path><path d="M456.88 894.59Q464.47 894.67 472.06 894.75 479.65 894.75 487.24 894.75 494.83 894.67 502.42 894.6 510.01 894.44 517.6 894.29 525.19 894.05 532.78 893.82 540.37 893.5 547.96 893.19 555.55 892.8 563.14 892.42 570.73 891.95 578.32 891.48 585.91 890.95 593.5 890.41" stroke="#4000ff" stroke-width="4"></path><path d="M620.93 888.08Q628.86 887.31 636.79 886.53 644.73 885.67 652.66 884.82 660.59 883.9 668.52 882.97 676.45 881.98 684.39 880.98 692.32 879.92 700.25 878.85 708.18 877.72 716.12 876.6 724.05 875.41 731.98 874.22 739.91 872.97 747.84 871.72 755.78 870.41 763.71 869.11 771.64 867.76 779.57 866.4 787.5 865 795.44 863.59 803.37 862.15 811.3 860.7" stroke="#8000ff" stroke-width="4"></path><path d="M821.6 858.77Q829.4 857.29 837.2 855.8 845 854.28 852.8 852.76 860.6 851.21 868.41 849.67 876.21 848.09 884.01 846.52 891.81 844.93 899.61 843.34 907.41 841.73 915.21 840.12 923.01 838.49 930.81 836.87 938.61 835.24 946.41 833.61 954.22 831.98 962.02 830.35 969.82 828.71 977.62 827.08 985.42 825.45 993.22 823.83" stroke="#8000ff" stroke-width="4"></path><path d="M1003.31 821.73Q1010.92 820.16 1018.54 818.58 1026.15 817.03 1033.76 815.47 1041.38 813.93 1048.99 812.39 1056.61 810.88 1064.22 809.36 1071.83 807.87 1079.45 806.38 1087.06 804.93 1094.67 803.47 1102.29 802.04 1109.9 800.62 1117.51 799.23 1125.13 797.84 1132.74 796.5 1140.36 795.15 1147.97 793.85 1155.58 792.55 1163.2 791.29 1170.81 790.04" stroke="#ff0080" stroke-width="4"></path><path d="M1187.19 787.45Q1195.12 786.26 1203.05 785.07 1210.98 783.93 1218.91 782.8 1226.84 781.74 1234.76 780.67 1242.69 779.67 1250.62 778.67 1258.55 777.74 1266.48 776.81 1274.41 775.96 1282.34 775.1 1290.27 774.32 1298.2 773.54 1306.13 772.83 1314.06 772.13 1321.98 771.5 1329.91 770.88 1337.84 770.33 1345.77 769.79 1353.7 769.33 1361.63 768.86" stroke="#ff00ff" stroke-width="4"></path><path d="M1400.7 767.3Q1408.86 767.12 1417.02 766.95 1425.18 766.87 1433.34 766.78 1441.5 766.79 1449.66 766.8 1457.82 766.9 1465.98 767 1474.14 767.19 1482.3 767.38 1490.46 767.66 1498.62 767.94 1506.78 768.31 1514.94 768.68 1523.1 769.14 1531.26 769.6 1539.42 770.15 1547.58 770.69 1555.74 771.33 1563.9 771.96" stroke="#8000ff" stroke-width="4"></path><path d="M1597.02 775.03Q1605.42 775.94 1613.82 776.85 1622.22 777.84 1630.62 778.82 1639.03 779.89 1647.43 780.96 1655.83 782.1 1664.23 783.24 1672.63 784.45 1681.03 785.67" stroke="#0080ff" stroke-width="4"></path><path d="M1699.5 788.49Q1708.24 789.9 1716.99 791.31 1725.74 792.78 1734.48 794.26 1743.22 795.79 1751.97 797.32 1760.72 798.91 1769.46 800.5 1778.2 802.14 1786.95 803.78" stroke="#ff0080" stroke-width="4"></path><path d="M1804.86 807.22Q1810.09 808.25 1815.33 809.27 1820.56 810.31 1825.79 811.35 1831.03 812.4 1836.26 813.45 1841.5 814.51 1846.73 815.57 1851.96 816.64 1857.2 817.71 1862.43 818.78 1867.66 819.86 1872.9 820.94 1878.13 822.03 1883.36 823.12 1888.6 824.2 1893.83 825.3 1899.07 826.39 1904.3 827.48 1909.53 828.58 1914.77 829.67 1920 830.77" stroke="#8000ff" stroke-width="4"></path><path d="M0.6 923.2Q8.66 924.89 16.72 926.58 24.78 928.26 32.84 929.94 40.9 931.61 48.95 933.29 57.01 934.94 65.07 936.6 73.13 938.24 81.19 939.88 89.25 941.5 97.31 943.11 105.37 944.7 113.43 946.29 121.49 947.85 129.55 949.4 137.6 950.92 145.66 952.44 153.72 953.92 161.78 955.4 169.84 956.83 177.9 958.27" stroke="#4000ff" stroke-width="4"></path><path d="M214.31 964.37Q223.29 965.77 232.28 967.17 241.26 968.5 250.25 969.82 259.23 971.07 268.21 972.31 277.2 973.47 286.18 974.63 295.17 975.7 304.15 976.77" stroke="#ff00ff" stroke-width="4"></path><path d="M318.27 978.32Q326.37 979.14 334.47 979.96 342.57 980.69 350.67 981.43 358.77 982.09 366.87 982.74 374.97 983.31 383.07 983.88 391.17 984.37 399.27 984.86 407.37 985.26 415.47 985.66" stroke="#ff00ff" stroke-width="4"></path><path d="M444.04 986.63Q451.66 986.78 459.28 986.93 466.89 987 474.51 987.07 482.13 987.06 489.75 987.04 497.37 986.95 504.99 986.86 512.61 986.69 520.22 986.52 527.84 986.27 535.46 986.03 543.08 985.7 550.7 985.37 558.31 984.97 565.93 984.56 573.55 984.08 581.17 983.6" stroke="#8000ff" stroke-width="4"></path><path d="M607.87 981.55Q616.02 980.82 624.17 980.08 632.33 979.27 640.48 978.45 648.63 977.56 656.78 976.66 664.93 975.69 673.09 974.72 681.24 973.68 689.39 972.63 697.54 971.52 705.69 970.4 713.84 969.22 722 968.04 730.15 966.79 738.3 965.54" stroke="#00ffff" stroke-width="4"></path><path d="M765.63 961.1Q773.21 959.8 780.78 958.5 788.36 957.15 795.94 955.81 803.51 954.43 811.09 953.04" stroke="#ff00ff" stroke-width="4"></path><path d="M828.47 949.78Q836.58 948.22 844.69 946.66 852.8 945.06 860.9 943.47 869.01 941.85 877.12 940.22 885.23 938.58 893.34 936.93 901.45 935.26 909.55 933.59 917.66 931.91 925.77 930.23 933.88 928.54 941.99 926.85 950.1 925.15 958.2 923.45 966.31 921.76 974.42 920.06" stroke="#4000ff" stroke-width="4"></path><path d="M993.67 916.04Q1002.08 914.29 1010.49 912.55 1018.91 910.82 1027.32 909.09 1035.73 907.38 1044.14 905.68" stroke="#4000ff" stroke-width="4"></path><path d="M1067.76 900.97Q1075.53 899.46 1083.29 897.95 1091.06 896.47 1098.83 894.99 1106.6 893.55 1114.36 892.1 1122.13 890.7 1129.9 889.3 1137.66 887.94 1145.43 886.58 1153.2 885.27 1160.97 883.96 1168.73 882.69 1176.5 881.43 1184.27 880.22 1192.04 879.02 1199.8 877.87 1207.57 876.72" stroke="#0080ff" stroke-width="4"></path><path d="M1235.09 872.93Q1242.75 871.97 1250.41 871 1258.07 870.1 1265.73 869.21 1273.39 868.37 1281.06 867.54 1288.72 866.78 1296.38 866.02 1304.04 865.33 1311.7 864.64" stroke="#ff0080" stroke-width="4"></path><path d="M1331.39 863.08Q1339.3 862.54 1347.21 862 1355.12 861.55 1363.03 861.1 1370.94 860.73 1378.85 860.35 1386.76 860.07 1394.67 859.78 1402.58 859.58 1410.5 859.38 1418.41 859.26 1426.32 859.14 1434.23 859.11 1442.14 859.08 1450.05 859.13 1457.96 859.19 1465.87 859.33 1473.78 859.47" stroke="#00ffff" stroke-width="4"></path><path d="M1513.48 860.92Q1521 861.33 1528.51 861.74 1536.03 862.23 1543.55 862.72 1551.07 863.28 1558.58 863.84 1566.1 864.47 1573.62 865.1 1581.13 865.8 1588.65 866.5 1596.17 867.27 1603.68 868.04 1611.2 868.88 1618.72 869.71 1626.24 870.62 1633.75 871.52 1641.27 872.48 1648.79 873.44 1656.3 874.47 1663.82 875.49 1671.34 876.57 1678.86 877.65 1686.37 878.79 1693.89 879.93" stroke="#4000ff" stroke-width="4"></path><path d="M1709.41 882.38Q1717.69 883.75 1725.98 885.12 1734.26 886.54 1742.55 887.97 1750.83 889.44 1759.12 890.92 1767.4 892.44 1775.69 893.96 1783.97 895.53 1792.25 897.09 1800.54 898.7 1808.82 900.3 1817.11 901.94 1825.39 903.58 1833.68 905.24 1841.96 906.91 1850.25 908.6 1858.53 910.29" stroke="#00ffff" stroke-width="4"></path><path d="M1884.42 915.64Q1887.38 916.26 1890.35 916.88 1893.32 917.5 1896.28 918.11 1899.24 918.73 1902.21 919.35 1905.17 919.97 1908.14 920.59 1911.11 921.21 1914.07 921.84 1917.03 922.46 1920 923.08" stroke="#0080ff" stroke-width="4"></path><path d="M13.78 1018.27Q21.47 1019.88 29.17 1021.48 36.86 1023.08 44.55 1024.68 52.25 1026.27 59.94 1027.86 67.63 1029.43 75.32 1031 83.02 1032.55 90.71 1034.11" stroke="#0080ff" stroke-width="4"></path><path d="M107.33 1037.4Q116.25 1039.14 125.16 1040.87 134.08 1042.56 143 1044.25 151.91 1045.89 160.83 1047.54" stroke="#4000ff" stroke-width="4"></path><path d="M193.94 1053.33Q202.12 1054.68 210.29 1056.03 218.47 1057.33 226.65 1058.62 234.82 1059.85 243 1061.08 251.18 1062.25 259.36 1063.41 267.53 1064.51 275.71 1065.61" stroke="#00ffff" stroke-width="4"></path><path d="M312.61 1070.02Q320.7 1070.86 328.8 1071.71 336.89 1072.47 344.99 1073.24 353.08 1073.92 361.17 1074.61 369.27 1075.21 377.36 1075.81 385.45 1076.32 393.55 1076.84 401.64 1077.27 409.74 1077.7 417.83 1078.04 425.92 1078.39 434.02 1078.64 442.11 1078.89 450.21 1079.06 458.3 1079.22" stroke="#8000ff" stroke-width="4"></path><path d="M475.95 1079.38Q483.5 1079.36 491.05 1079.34 498.59 1079.25 506.14 1079.15 513.69 1078.98 521.24 1078.8 528.79 1078.55 536.33 1078.3 543.88 1077.97 551.43 1077.64 558.98 1077.24 566.53 1076.84 574.07 1076.36 581.62 1075.88 589.17 1075.33 596.72 1074.77 604.27 1074.15 611.82 1073.52 619.36 1072.83 626.91 1072.13 634.46 1071.36 642.01 1070.6 649.56 1069.77 657.1 1068.93 664.65 1068.04 672.2 1067.14" stroke="#00ffff" stroke-width="4"></path><path d="M704.53 1062.87Q709.23 1062.2 713.92 1061.53 718.62 1060.84 723.32 1060.15 728.01 1059.43 732.71 1058.72" stroke="#00ffff" stroke-width="4"></path><path d="M755.63 1055.07Q763.23 1053.79 770.83 1052.52 778.43 1051.2 786.03 1049.88 793.62 1048.52 801.22 1047.16 808.82 1045.76 816.42 1044.36 824.02 1042.93 831.62 1041.49 839.22 1040.02 846.82 1038.55 854.41 1037.05 862.01 1035.56 869.61 1034.03 877.21 1032.51 884.81 1030.97 892.41 1029.43 900.01 1027.86 907.61 1026.3 915.21 1024.73 922.8 1023.16 930.4 1021.57 938 1019.99 945.6 1018.4 953.2 1016.81" stroke="#0080ff" stroke-width="4"></path><path d="M977.86 1011.65Q986.34 1009.88 994.83 1008.11 1003.31 1006.35 1011.8 1004.59 1020.28 1002.85 1028.76 1001.1 1037.25 999.38 1045.73 997.66 1054.22 995.97 1062.7 994.28" stroke="#0080ff" stroke-width="4"></path><path d="M1074.69 991.92Q1083.28 990.27 1091.87 988.61 1100.46 987 1109.06 985.39 1117.65 983.82 1126.24 982.26" stroke="#8000ff" stroke-width="4"></path><path d="M1137.06 980.34Q1145.76 978.85 1154.47 977.35 1163.17 975.91 1171.88 974.48 1180.58 973.11 1189.29 971.74 1197.99 970.45 1206.7 969.15 1215.4 967.93 1224.11 966.7 1232.81 965.56 1241.52 964.42" stroke="#ff00ff" stroke-width="4"></path><path d="M1261 962.05Q1269.12 961.15 1277.25 960.25 1285.37 959.42 1293.5 958.6 1301.62 957.86 1309.75 957.11 1317.87 956.45 1326 955.79 1334.12 955.21 1342.25 954.63 1350.37 954.14 1358.5 953.65" stroke="#8000ff" stroke-width="4"></path><path d="M1377.23 952.73Q1385.01 952.44 1392.79 952.15 1400.58 951.94 1408.36 951.73 1416.14 951.6 1423.92 951.47 1431.7 951.43 1439.48 951.38 1447.27 951.42 1455.05 951.46 1462.83 951.58 1470.61 951.71 1478.39 951.91 1486.18 952.11 1493.96 952.4 1501.74 952.69" stroke="#0080ff" stroke-width="4"></path><path d="M1527.01 953.96Q1534.97 954.47 1542.93 954.98 1550.89 955.57 1558.85 956.16 1566.81 956.84 1574.77 957.51 1582.73 958.26 1590.69 959.01 1598.65 959.84 1606.61 960.66 1614.57 961.57 1622.54 962.47 1630.5 963.44 1638.46 964.41 1646.42 965.46 1654.38 966.5 1662.34 967.61 1670.3 968.72 1678.26 969.89 1686.22 971.06 1694.18 972.29 1702.14 973.52" stroke="#ff00ff" stroke-width="4"></path><path d="M1727.7 977.72Q1735.24 979.01 1742.78 980.31 1750.33 981.66 1757.87 983 1765.41 984.38 1772.95 985.76 1780.49 987.18 1788.03 988.6 1795.58 990.05 1803.12 991.5 1810.66 992.98 1818.2 994.46 1825.74 995.96 1833.29 997.47 1840.83 998.99 1848.37 1000.52" stroke="#8000ff" stroke-width="4"></path><path d="M1874.08 1005.8Q1876.95 1006.4 1879.82 1006.99 1882.69 1007.59 1885.56 1008.19 1888.43 1008.78 1891.3 1009.38 1894.17 1009.98 1897.04 1010.58 1899.91 1011.18 1902.78 1011.78 1905.65 1012.38 1908.52 1012.98 1911.39 1013.58 1914.26 1014.18 1917.13 1014.78 1920 1015.38" stroke="#8000ff" stroke-width="4"></path><path d="M26.32 1113.2Q30.01 1113.97 33.7 1114.74 37.39 1115.5 41.08 1116.27 44.77 1117.03 48.46 1117.8" stroke="#4000ff" stroke-width="4"></path><path d="M84.41 1125.15Q92.35 1126.73 100.28 1128.32 108.22 1129.88 116.16 1131.44 124.09 1132.97 132.03 1134.49 139.96 1135.98 147.9 1137.47 155.84 1138.92 163.77 1140.37 171.71 1141.78 179.65 1143.19 187.58 1144.55 195.52 1145.9" stroke="#00ffff" stroke-width="4"></path><path d="M208.51 1148.05Q215.06 1149.1 221.61 1150.14 228.15 1151.15 234.7 1152.16 241.25 1153.12 247.8 1154.09" stroke="#ff0080" stroke-width="4"></path><path d="M265.73 1156.59Q273.67 1157.63 281.6 1158.67 289.54 1159.64 297.48 1160.61 305.41 1161.51 313.35 1162.41 321.28 1163.23 329.22 1164.06 337.16 1164.81 345.09 1165.56 353.03 1166.23 360.97 1166.9 368.9 1167.49 376.84 1168.08 384.78 1168.59 392.71 1169.1 400.65 1169.53 408.58 1169.95 416.52 1170.3 424.46 1170.64 432.39 1170.9 440.33 1171.15" stroke="#4000ff" stroke-width="4"></path><path d="M458.31 1171.53Q467.61 1171.61 476.91 1171.69 486.21 1171.65 495.51 1171.61 504.81 1171.45 514.11 1171.29 523.41 1171.02 532.71 1170.74" stroke="#8000ff" stroke-width="4"></path><path d="M544.24 1170.28Q547.39 1170.14 550.54 1169.99 553.69 1169.84 556.85 1169.68 560 1169.51 563.15 1169.34" stroke="#0080ff" stroke-width="4"></path><path d="M597.49 1167.02Q600.68 1166.76 603.86 1166.51 607.05 1166.24 610.24 1165.97 613.42 1165.68 616.61 1165.4" stroke="#8000ff" stroke-width="4"></path><path d="M639.32 1163.19Q647.32 1162.32 655.31 1161.45 663.31 1160.5 671.3 1159.55 679.3 1158.54 687.3 1157.52 695.29 1156.44 703.29 1155.35 711.29 1154.2 719.28 1153.05 727.28 1151.84 735.27 1150.63 743.27 1149.36 751.27 1148.09 759.26 1146.76 767.26 1145.44 775.26 1144.06 783.25 1142.68 791.25 1141.25 799.24 1139.83 807.24 1138.36 815.24 1136.89 823.23 1135.38 831.23 1133.87" stroke="#00ffff" stroke-width="4"></path><path d="M857.34 1128.79Q858.76 1128.51 860.18 1128.23 861.6 1127.95 863.02 1127.66 864.44 1127.38 865.86 1127.1" stroke="#4000ff" stroke-width="4"></path><path d="M903.82 1119.39Q911.77 1117.75 919.72 1116.1 927.67 1114.45 935.63 1112.79 943.58 1111.13 951.53 1109.47 959.48 1107.8 967.43 1106.14 975.38 1104.47 983.33 1102.81 991.28 1101.15 999.24 1099.5 1007.19 1097.85 1015.14 1096.21 1023.09 1094.58 1031.04 1092.95 1038.99 1091.34 1046.94 1089.73 1054.9 1088.14 1062.85 1086.56 1070.8 1085 1078.75 1083.44" stroke="#ff0080" stroke-width="4"></path><path d="M1112.55 1077.05Q1120.41 1075.63 1128.26 1074.21 1136.12 1072.83 1143.98 1071.45 1151.84 1070.11 1159.69 1068.78 1167.55 1067.5 1175.41 1066.22 1183.26 1065 1191.12 1063.77 1198.98 1062.6 1206.84 1061.44 1214.69 1060.33 1222.55 1059.22" stroke="#00ffff" stroke-width="4"></path><path d="M1262.32 1054.21Q1269.94 1053.37 1277.56 1052.52 1285.18 1051.75 1292.8 1050.98 1300.42 1050.27 1308.04 1049.57 1315.66 1048.94 1323.28 1048.3" stroke="#8000ff" stroke-width="4"></path><path d="M1344.05 1046.82Q1352.11 1046.34 1360.18 1045.86 1368.24 1045.47 1376.31 1045.08 1384.37 1044.77 1392.43 1044.47 1400.5 1044.25 1408.56 1044.03 1416.63 1043.9 1424.69 1043.77" stroke="#00ffff" stroke-width="4"></path><path d="M1459.22 1043.82Q1461.27 1043.85 1463.31 1043.88 1465.36 1043.91 1467.41 1043.95 1469.45 1043.99 1471.5 1044.03" stroke="#ff0080" stroke-width="4"></path><path d="M1489.97 1044.55Q1497.68 1044.85 1505.39 1045.15 1513.1 1045.53 1520.81 1045.92 1528.52 1046.38 1536.23 1046.84 1543.94 1047.38 1551.65 1047.92 1559.36 1048.53 1567.07 1049.15" stroke="#ff00ff" stroke-width="4"></path><path d="M1581.77 1050.46Q1589.97 1051.27 1598.16 1052.08 1606.36 1052.96 1614.55 1053.85 1622.75 1054.82 1630.94 1055.79 1639.14 1056.83 1647.34 1057.87 1655.53 1058.98 1663.73 1060.09 1671.92 1061.27 1680.12 1062.46 1688.31 1063.7 1696.51 1064.95" stroke="#00ffff" stroke-width="4"></path><path d="M1708.85 1066.91Q1717.09 1068.26 1725.33 1069.62 1733.57 1071.04 1741.81 1072.45 1750.05 1073.92 1758.29 1075.38" stroke="#0080ff" stroke-width="4"></path><path d="M1796.4 1082.51Q1804.43 1084.07 1812.46 1085.63 1820.49 1087.22 1828.52 1088.82 1836.55 1090.44 1844.57 1092.06 1852.6 1093.7 1860.63 1095.34 1868.66 1096.99 1876.69 1098.65 1884.72 1100.32 1892.75 1101.99" stroke="#ff00ff" stroke-width="4"></path></g><defs><clipPath id="SvgjsClipPath1004"><rect width="1920" height="1200" x="0" y="0"></rect></clipPath></defs></svg>